<svg xmlns="http://www.w3.org/2000/svg" width="60" height="60" viewBox="0 0 60 60">
    <g fill="none" fill-rule="nonzero">
        <path fill="#82CC00" d="M60 30c0 16.548-13.452 30-30 30C13.452 60 0 46.548 0 30 0 13.452 13.452 0 30 0c16.548 0 30 13.452 30 30z"/>
        <path fill="#EFF" d="M27.118 39.857c-.384 0-.671-.097-.96-.388l-8.726-8.822a1.416 1.416 0 0 1 0-2.036c.575-.582 1.438-.582 2.014 0l7.768 7.853 14.769-15.028c.575-.581 1.439-.581 2.014 0a1.416 1.416 0 0 1 0 2.036L28.077 39.47c-.288.291-.671.388-.96.388z"/>
    </g>
</svg>
