<svg xmlns="http://www.w3.org/2000/svg" width="90" height="89" viewBox="0 0 90 89">
    <g fill="none" fill-rule="nonzero">
        <path fill="#22B3FF" d="M88.525 44.263c0 24.448-19.816 44.262-44.262 44.262C19.815 88.525 0 68.71 0 44.263-.001 19.816 19.815 0 44.263 0c24.446 0 44.262 19.817 44.262 44.263z"/>
        <g fill="#10A8F8">
            <path d="M88.5 42.705l-.035-.035-21.552-21.36c-5.486-5.506-13.095-8.93-21.502-8.93-.726 0-1.314.583-1.314 1.303 0 .432.225.795.55 1.032.079.106.169.196.276.273.079.107 4.193 4.193 4.226 4.229-1.22-.194-2.463-.322-3.738-.322-.726 0-1.314.583-1.314 1.303 0 .43.225.794.55 1.031.078.107 4.59 4.578 4.697 4.656l.006.008a17.194 17.194 0 0 0-3.939-.471c-.726 0-1.314.583-1.314 1.303 0 .431.719 1.227.826 1.305.078.106 4.837 4.826 4.925 4.897a10.454 10.454 0 0 0-4.416-.983c-.726 0-1.315.583-1.315 1.303 0 .431.225.795.55 1.032.08.106 35.324 35.025 35.377 35.065.021.027.042.054.06.083 5.292-7.246 8.42-16.147 8.42-25.777 0-.317-.017-.63-.024-.945zM79.4 70.369c-.071-.074-9.79-9.72-9.89-9.803-.095-.088-.176-.191-.276-.273-.095-.089-41.346-40.993-41.445-41.075-1.001-.938-2.291-1.529-3.683-1.614a5.96 5.96 0 0 0-4.554 1.712l-4.911 4.877c-2.72 2.702-6.654 11.362 15.5 33.367l.125.121.15.153.136.13c.049.05 27.581 27.336 27.626 27.38l.045.045A44.478 44.478 0 0 0 79.4 70.37z"/>
        </g>
        <g fill="#F6F6F6">
            <path d="M67.63 59.43l-7.624-5.962a5.839 5.839 0 0 0-7.249.026l-1.694 1.346a3.25 3.25 0 0 1-4.33-.254l-13.634-13.7a3.297 3.297 0 0 1-.254-4.36l1.339-1.705a5.905 5.905 0 0 0 .026-7.276l-5.932-7.66a5.869 5.869 0 0 0-4.272-2.265 5.87 5.87 0 0 0-4.516 1.718l-4.87 4.892C11.925 26.94 8.025 35.628 29.989 57.7 44.31 72.093 53.045 75.114 57.851 75.114c2.888 0 4.56-1.07 5.454-1.97l4.869-4.892a5.91 5.91 0 0 0-.545-8.822zm-1.302 6.976L61.46 71.3c-.546.547-1.615 1.2-3.609 1.2-3.53 0-11.605-2.161-26.017-16.644-16.607-16.69-18.658-26.474-15.368-29.78l4.87-4.893a3.258 3.258 0 0 1 2.508-.955c.934.059 1.8.517 2.375 1.26l5.932 7.66a3.29 3.29 0 0 1-.015 4.054l-1.338 1.704a5.917 5.917 0 0 0 .455 7.824L44.887 56.43a5.851 5.851 0 0 0 7.794.458l1.695-1.346a3.243 3.243 0 0 1 4.027-.016l7.622 5.962a3.298 3.298 0 0 1 .303 4.917zM45.128 12.38c-.72 0-1.303.585-1.303 1.308 0 .722.584 1.307 1.303 1.307 15.093 0 27.371 12.312 27.371 27.446a1.305 1.305 0 0 0 2.607 0c0-16.576-13.448-30.06-29.978-30.06z"/>
            <path d="M45.128 21.53c11.5 0 20.854 9.38 20.854 20.91a1.305 1.305 0 0 0 2.607 0c0-12.97-10.524-23.525-23.46-23.525-.72 0-1.304.585-1.304 1.307 0 .723.584 1.307 1.303 1.307z"/>
            <path d="M45.128 28.077c7.906 0 14.338 6.44 14.338 14.357 0 .723.583 1.307 1.303 1.307s1.304-.584 1.304-1.307c0-9.358-7.6-16.97-16.944-16.97-.72 0-1.304.584-1.304 1.306 0 .722.584 1.307 1.303 1.307z"/>
            <path d="M45.149 32.005c-.72 0-1.303.585-1.303 1.307 0 .723.583 1.308 1.303 1.308 4.28 0 7.76 3.49 7.76 7.781a1.305 1.305 0 0 0 2.607 0c0-5.732-4.65-10.396-10.367-10.396z"/>
        </g>
    </g>
</svg>
