<svg xmlns="http://www.w3.org/2000/svg" width="61" height="60" viewBox="0 0 61 60">
    <g fill="none" fill-rule="nonzero">
        <path fill="#22B3FF" d="M60 30c0 16.57-13.43 30-30 30S0 46.57 0 30 13.43 0 30 0s30 13.431 30 30z"/>
        <path fill="#10A8F8" d="M53.816 47.694c-.049-.05 3.252-4.638 3.184-4.694-.064-.06 3.068-10.944 3-11-.064-.06-16.933-11.945-17-12-.298-.28-8.631.054-25 1-1.294 4.36-1.96 7.36-2 9-.156 6.437 1.213 9.564 0 10-2.514.905 23.401 17.814 23.432 17.844a29.826 29.826 0 0 0 14.384-10.15z"/>
        <path fill="#FFF" d="M41.228 19H18.771C17.243 19 16 20.234 16 21.751v16.5C16 39.767 17.243 41 18.77 41h22.46c1.527 0 2.77-1.232 2.77-2.75V21.751A2.766 2.766 0 0 0 41.228 19zm1.77 19.381c0 .892-.73 1.619-1.625 1.619H18.625A1.624 1.624 0 0 1 17 38.381V21.618c0-.891.73-1.618 1.625-1.618h22.75c.895 0 1.625.727 1.625 1.618l-.002 16.763zm-9.007-8.896l5.806-5.528a.542.542 0 0 0 0-.793.61.61 0 0 0-.832 0l-9.07 8.634-8.89-8.467a.612.612 0 0 0-.833 0 .543.543 0 0 0 0 .794l5.781 5.503-5.687 5.416a.54.54 0 0 0 0 .791c.115.11.266.165.417.165a.604.604 0 0 0 .417-.165l5.685-5.413 2.695 2.565a.605.605 0 0 0 .416.165.605.605 0 0 0 .417-.165l2.845-2.708 5.836 5.556a.606.606 0 0 0 .834 0 .54.54 0 0 0 0-.791l-5.837-5.559z"/>
    </g>
</svg>
